# xmcd
# 
# Track frame offsets:
#     150
#     14862
#     30551
#     46750
#     61535
#     76181
#     86071
#     100852
#     114549
#     134826
#     146195
#     163819
#     175460
#     190726
#     200732
#     214569
# 
# Disc length: 3005
# 
# Revision: 2
# Processed by: cddbd v1.5.2PL0 Copyright (c) Steve Scherf et al.
# Submitted via: fre:ac v1.0.17
# 
DISCID=e50bbb10
DTITLE=Various Artist - 142.151 Country 7 (Duets)
DYEAR=0
DGENRE=Country
TTITLE0=Juice Newton&Willie Nelson - Touch Me
TTITLE1=Emmylou Harris&Carl Jackson - Something Else To Keep Your Memory Green
TTITLE2=Patsy Cine&Mila Jackson - Crazy Dreams
TTITLE3=Johnny Cash - There Ain't No Good
TTITLE4=Ernest Tupp&Georg Jones - Filipino Baby
TTITLE5=Boots Randolph&Danny Davis - I Fall To Pieces
TTITLE6=Marty Robbins&Ernerst Tubb - Rainbow At Midnight
TTITLE7=Willie Nelson&Leon Russell - Heartbreak Hotel
TTITLE8=Emmylou Harris&Carl Jackson - Love Hurts
TTITLE9=Jean Sheppard&Ferlin Husky - A Dear John Letter
TTITLE10=Patsy Cline&Waylon Jennings - Just Out Reach
TTITLE11=Bobby Gentry&Glen Campbell - All Have To Do
TTITLE12=David Frizzel&Shelly West - Your The Reason
TTITLE13=Margaret Whiting&Jimmy Wakely - Slippin' Around
TTITLE14=Jim Ed Brown - Don't Want To Have
TTITLE15=Waylon Jennings&Willie Nelson - Mamas Don't Let Your Babies Grow Up To Be Cowboys
EXTD=
EXTT0=
EXTT1=
EXTT2=
EXTT3=
EXTT4=
EXTT5=
EXTT6=
EXTT7=
EXTT8=
EXTT9=
EXTT10=
EXTT11=
EXTT12=
EXTT13=
EXTT14=
EXTT15=
PLAYORDER=
